<mxfile host="app.diagrams.net" modified="2023-08-16T17:23:28.721Z" agent="Mozilla/5.0 (Windows NT 10.0; Win64; x64) AppleWebKit/537.36 (KHTML, like Gecko) Chrome/115.0.0.0 Safari/537.36" version="21.6.8" etag="s93apbJlC6K2-klAkhs0" type="github">
  <diagram name="PÃ¡gina-1" id="_RamusXvaamxrlhIwVvy">
    <mxGraphModel>
      <root>
        <mxCell id="0" />
        <mxCell id="1" parent="0" />
      </root>
    </mxGraphModel>
  </diagram>
</mxfile>
